<?xml version="1.0" encoding="UTF-8"?>
<svg id="katman_2" data-name="katman 2" xmlns="http://www.w3.org/2000/svg" viewBox="0 0 1946.68 473.15">
  <defs>
    <style>
      .cls-1 {
        fill: none;
      }

      .cls-1, .cls-2, .cls-3 {
        stroke-width: 0px;
      }

      .cls-2 {
        fill: #b40001;
      }

      .cls-3 {
        fill: #000;
      }
    </style>
  </defs>
  <g id="katman_1" data-name="katman 1">
    <g>
      <path class="cls-1" d="M228.33,468.53c-.3-3.5.03-6.18-.81-8.41-4.45-11.82-4.83-24.05-4.82-36.48.06-70.03-.09-140.06-.2-210.09,0-4.63.06-9.29-.45-13.88-.67-6.06-3.77-9.21-9.65-10.47-2-.43-4.09-.63-6.13-.62-18.02.02-36.05-.03-54.07.3-3.97.07-7.92,1.56-13.26,2.69,7.07,7.41,11.7,14.71,11.71,23.92,0,21.63-.01,43.25-.21,64.88-.04,4.59-.46,9.34-5.42,13.09-2.85-.26-6.43-.29-9.88-.97-3.52-.69-6.88-2.1-10.35-3.07-35.13-9.79-75.76,8.32-85.56,48.05-5.01,20.31-6.95,40.59-4.76,61.21,1.3,12.27,3.74,24.43,8.87,35.84,12.33,27.39,38.28,42.17,67.52,37.73,7.53-1.14,14.99-3.79,22.05-6.76,11.17-4.7,21.86-5.2,32.61.81,6.93,3.87,14.62,5.47,22.33,5.19,13.3-.48,26.58-1.88,40.49-2.95Z"/>
      <path class="cls-3" d="M626.08,192.4c.57,2.88.84,5.94,1.8,8.75,3.25,9.43,3.66,19.16,3.66,28.98-.03,64.92-.04,129.85,0,194.77,0,9.83-.57,19.52-3.31,29.06-1.06,3.69-1.06,7.69-1.55,11.54,17.82,2.06,71.27,1.73,83.07-.51-7.13-24.59-6.9-49.25-.25-76.89,7.08,9.29,11.79,17.1,16.2,24.96,4.77,8.51,9.49,17.2,12.74,26.35,3.02,8.51,4.08,17.72,5.96,26.47,2.19.4,3.69.91,5.19.91,25.25.05,50.5.08,75.76-.04,1.68,0,3.35-1.2,5.36-1.97-4.74-6.79-9.55-12.31-12.83-18.63-16.6-32-32.94-64.14-49.05-96.39-5.93-11.87-4.54-16.83,5.9-25.37,9.97-8.16,20.18-16.01,30.25-24.05,1.94-1.55,4.27-3.13,2.19-6.55-10.02-.16-20.24-1.24-30.79.83v14.81c-20.57,17.6-41.7,34.82-63.24,51.54-1.3,1.01-3.71.57-5.84.84-2.96-5.98-2.44-11.73-2.52-17.26-.22-15.46-.1-30.92-.16-46.37-.11-27.31-.22-54.62-.38-81.93-.05-8.81-.93-17.42-6.67-24.2-22.38-3.69-58.61-3.54-71.48.34Z"/>
      <path class="cls-3" d="M1057.93,371.93c-3.71,2.51-6.09,4.55-8.82,5.86-2.74,1.32-5.77,2.24-8.77,2.77-6.07,1.08-12.23,1.64-18.31,2.65-11.15,1.85-22.37,3.42-33.36,5.98-8.26,1.93-15.3,6.85-19.1,14.6-8.26,16.87-7.82,33.79,1.95,50.04,3.25,5.41,8.23,9.42,14.09,11.63,7.19,2.72,14.54,5.42,22.07,6.69,12.39,2.1,24.74,1.13,35.92-5.43,2.89-1.69,5.09-4.55,7.75-7-2.92-4.19-5.62-7.36-7.53-10.94-7.58-14.23-10.03-29.13-4.57-44.68,2.33-6.66,6.29-11.82,14.28-11.9,5.53,3.87,5.58,9.6,5.43,15.3-.27,10.29-.43,20.6-1.12,30.87-.62,9.27,3.47,15.63,10.7,20.82,8.07,5.79,16.71,10.48,26.47,12.1,20.62,3.43,40.19,1.89,55.27-15.13,1.48-1.66,2-4.17,2.98-6.3-1.41-.62-1.85-.94-2.32-1-17.26-2.15-18.99-3.98-19.57-20.86-.07-2.06-.05-4.12-.06-6.18-.12-16.99-.04-33.98-.43-50.97-.27-11.83-.74-23.69-1.91-35.46-2.39-24.03-15.11-38.4-38.5-44.37-1.49-.38-3.03-.59-4.54-.92-28.41-6.22-56.4-3.24-83.9,4.78-19.05,5.55-28.6,20.48-27.86,41.2.57,15.91,9.4,26,25.18,28.18,4.54.63,9.27.56,13.85.15,16.28-1.44,35.54-23.43,21.66-44.2-1.43-2.14-3.27-4.15-4.09-6.51-1.16-3.32-2.1-6.91-2.16-10.39-.09-5.03,4.44-8.36,9.45-7.67,9.2,1.27,15.44,7.31,17.18,17.01,3.47,19.36,3.1,38.88,2.71,59.28Z"/>
      <path class="cls-3" d="M939.72,465.37c-.24-2.67-.07-4.3-.57-5.69-4.48-12.33-5.1-25.07-5.07-38.05.15-68.03,0-136.07-.05-204.11,0-4.64.14-9.29-.2-13.91-.74-10.07-4.17-13.52-14.26-14.84-1.53-.2-3.08-.28-4.63-.28-15.46.02-30.93.03-46.39.15-4.63.04-9.34.11-13.46,4.15.51,2.13.79,4.68,1.73,6.95,4.44,10.71,5.27,21.86,5.25,33.32-.09,61.85-.01,123.7.16,185.55.04,12.45-.91,24.67-4.54,36.65-.97,3.22-.83,6.78-1.19,10.15,13.88,2.05,69.69,2.02,83.2-.04Z"/>
      <path class="cls-3" d="M333.87,291.09c13.39,18.76,14.39,38.63,13.06,58.98-.3,4.63-.41,9.26-.71,13.89-.67,10.26-3.16,13.78-13.2,15.82-8.04,1.63-16.33,2.03-24.5,3.01-7.14.86-14.35,1.38-21.41,2.72-28.77,5.45-34.94,23.9-34.51,43.57.05,2.06.17,4.12.4,6.16,1.59,14.48,8.91,25.25,22.03,31.34,18.26,8.48,36.91,8.47,55.27.04,2.98-1.37,5.24-4.32,8.08-6.74-2.47-3.84-4.63-6.7-6.28-9.83-7.5-14.22-9.9-29.14-5.27-44.77,2.24-7.57,7.01-12.17,14.94-12.15,5.48,4.77,4.87,10.62,4.81,16.25-.11,10.3-.29,20.6-.59,30.9-.21,7.31,2.85,12.81,8.48,17.26,7.79,6.15,16.31,10.66,26.03,12.99,13.86,3.33,27.57,3.02,41.16-1.18,6.04-1.87,11.24-5.25,14.99-10.39,2.95-4.05,6.2-8.18,4.8-14.84-4.66,1.2-8.9,2.29-12.68,3.26-5.92-3.72-7.79-9.07-8.57-14.75-.77-5.59-1.09-11.27-1.23-16.92-.62-25.23-.9-50.47-1.71-75.69-.77-24.04-12.71-40.81-34.35-48.06-15.41-5.16-31.16-6.33-49.04-.86Z"/>
      <path class="cls-3" d="M463.74,414.32c-1.14,3.47-2.44,5.71-2.53,8-.31,7.2-.26,14.41-.17,21.62.23,19.65,1.41,20.86,20.67,21.99,1.03.06,2.06.05,3.09.13,11.79.93,23.57,2.06,35.38,2.75,10.27.61,20.6,1.46,30.84.92,25.8-1.36,44.7-17.41,50.14-42.45,1.62-7.47,1.96-15.3,2.09-22.98.36-21.73-9.66-37.53-28.93-47.13-8.72-4.34-17.94-7.74-27.12-11.04-10.16-3.66-20.65-6.42-30.76-10.19-5.22-1.94-10.28-4.76-14.79-8.03-4.52-3.28-5.35-8.91-2.93-13.93,1.1-2.28,2.65-4.42,4.31-6.34,10.32-11.94,25.69-14.31,41.06-9.45,10.11,3.19,18.01,9.81,24.94,17.6,4.79,5.38,9.37,10.96,14.12,16.38,1.7,1.94,3.6,3.77,7.94,1.39,1.26-9.23.94-19.41.25-29.56-.45-6.56-2.64-8.84-9.55-10.01-7.1-1.2-14.27-2.02-21.43-2.83-11.76-1.32-23.52-3.42-35.3-3.54-38.79-.37-65.09,26.71-64.31,65.38.36,17.7,7.8,31.68,22.13,42.03,8.03,5.8,17.03,9.55,26.4,12.5,10.31,3.24,20.71,6.19,30.96,9.59,4.86,1.61,9.85,3.39,14.13,6.11,17.72,11.28,15.42,24.09-.66,34.63-1.28.84-2.73,1.48-4.18,1.95-9.44,3.06-18.99,4.37-28.89,2.21-16.95-3.7-30.09-12.87-39.79-27.12-3.47-5.1-6.73-10.36-10.42-15.3-1.38-1.85-3.71-2.99-6.65-5.26Z"/>
      <path class="cls-3" d="M312.66,290.58c-5.32,0-9.48-.55-13.46.09-24.66,3.99-40.31,25.92-36.32,50.58,1.71,10.58,7.36,18.06,17.78,21.17,4.37,1.31,9.05,2.06,13.61,2.18,19.36.49,29.62-9.55,30.27-28.82.54-15.94-5-30.17-11.87-45.19Z"/>
      <path class="cls-3" d="M1206.12,466.98c19.36.24,33.48-13.1,34.17-32.27.68-18.88-13.18-32.95-32.75-33.26-20.02-.31-33.57,12.5-33.83,31.97-.26,19.81,12.78,33.31,32.41,33.55Z"/>
      <path class="cls-2" d="M228.33,468.53c-13.91,1.06-27.19,2.46-40.49,2.95-7.71.28-15.4-1.32-22.33-5.19-10.75-6.01-21.44-5.51-32.61-.81-7.06,2.97-14.52,5.62-22.05,6.76-29.24,4.44-55.19-10.34-67.52-37.73-5.13-11.4-7.57-23.57-8.87-35.84-2.18-20.62-.25-40.9,4.76-61.21,9.8-39.72,50.43-57.84,85.56-48.05,3.47.97,6.84,2.37,10.35,3.07,3.45.68,7.03.71,9.88.97,4.96-3.75,5.38-8.5,5.42-13.09.2-21.62.22-43.25.21-64.88,0-9.21-4.64-16.51-11.71-23.92,5.34-1.13,9.29-2.62,13.26-2.69,18.02-.33,36.05-.27,54.07-.3,2.05,0,4.14.19,6.13.62,5.88,1.27,8.98,4.42,9.65,10.47.51,4.59.45,9.25.45,13.88.11,70.03.26,140.06.2,210.09-.01,12.43.37,24.66,4.82,36.48.84,2.24.51,4.91.81,8.41ZM111.62,426.93c0,3.59-.17,7.25.43,10.76,2.04,11.95,16.34,17.65,26.26,10.74,8.34-5.81,11.59-14.37,12.17-23.84,1.1-17.86,2.45-35.78,1.98-53.64-.41-15.85-3.06-31.65-4.92-47.46-.42-3.54-1.18-7.19-2.63-10.41-2.9-6.48-7.92-10.98-15.29-11.17-6.86-.18-11.54,4.3-14.54,9.87-1.61,2.99-1.94,6.9-2.09,10.42-.78,18.98-1.32,37.97-1.94,56.95"/>
      <path class="cls-2" d="M626.08,192.4c12.87-3.89,49.11-4.03,71.48-.34,5.74,6.78,6.62,15.39,6.67,24.2.17,27.31.28,54.62.38,81.93.06,15.46-.06,30.92.16,46.37.08,5.53-.44,11.28,2.52,17.26,2.13-.27,4.54.17,5.84-.84,21.54-16.72,42.68-33.94,63.24-51.54v-14.81c10.55-2.07,20.77-.99,30.79-.83,2.08,3.42-.24,5-2.19,6.55-10.07,8.04-20.28,15.9-30.25,24.05-10.44,8.54-11.83,13.5-5.9,25.37,16.11,32.25,32.46,64.38,49.05,96.39,3.28,6.32,8.09,11.84,12.83,18.63-2.01.77-3.69,1.96-5.36,1.97-25.25.12-50.5.09-75.76.04-1.5,0-3-.51-5.19-.91-1.89-8.75-2.94-17.96-5.96-26.47-3.25-9.15-7.97-17.84-12.74-26.35-4.41-7.87-9.12-15.67-16.2-24.96-6.65,27.64-6.88,52.3.25,76.89-11.8,2.25-65.25,2.58-83.07.51.48-3.85.49-7.85,1.55-11.54,2.74-9.54,3.32-19.23,3.31-29.06-.04-64.92-.04-129.85,0-194.77,0-9.83-.41-19.55-3.66-28.98-.97-2.81-1.23-5.87-1.8-8.75Z"/>
      <path class="cls-2" d="M1057.93,371.93c.39-20.4.76-39.91-2.71-59.28-1.74-9.7-7.97-15.74-17.18-17.01-5.01-.69-9.54,2.64-9.45,7.67.06,3.49.99,7.07,2.16,10.39.83,2.36,2.66,4.37,4.09,6.51,13.89,20.77-5.38,42.76-21.66,44.2-4.58.41-9.31.48-13.85-.15-15.78-2.18-24.62-12.27-25.18-28.18-.74-20.73,8.82-35.65,27.86-41.2,27.51-8.02,55.49-10.99,83.9-4.78,1.51.33,3.05.54,4.54.92,23.39,5.97,36.11,20.34,38.5,44.37,1.17,11.77,1.64,23.63,1.91,35.46.39,16.98.31,33.98.43,50.97.01,2.06-.01,4.12.06,6.18.58,16.88,2.31,18.71,19.57,20.86.47.06.91.38,2.32,1-.97,2.13-1.5,4.64-2.98,6.3-15.09,17.02-34.65,18.56-55.27,15.13-9.76-1.62-18.4-6.31-26.47-12.1-7.23-5.19-11.32-11.54-10.7-20.82.69-10.27.85-20.57,1.12-30.87.15-5.7.11-11.43-5.43-15.3-7.98.08-11.94,5.24-14.28,11.9-5.45,15.55-3,30.45,4.57,44.68,1.91,3.58,4.61,6.74,7.53,10.94-2.66,2.45-4.86,5.31-7.75,7-11.18,6.56-23.53,7.52-35.92,5.43-7.53-1.27-14.88-3.98-22.07-6.69-5.86-2.21-10.84-6.22-14.09-11.63-9.77-16.25-10.21-33.16-1.95-50.04,3.8-7.75,10.83-12.67,19.1-14.6,10.99-2.57,22.21-4.13,33.36-5.98,6.08-1.01,12.24-1.58,18.31-2.65,3-.53,6.03-1.45,8.77-2.77,2.73-1.32,5.12-3.35,8.82-5.86Z"/>
      <path class="cls-2" d="M939.72,465.37c-13.52,2.07-69.33,2.09-83.2.04.36-3.37.22-6.93,1.19-10.15,3.62-11.99,4.57-24.2,4.54-36.65-.18-61.85-.26-123.7-.16-185.55.02-11.46-.81-22.61-5.25-33.32-.94-2.27-1.22-4.82-1.73-6.95,4.13-4.04,8.84-4.11,13.46-4.15,15.46-.12,30.93-.12,46.39-.15,1.54,0,3.1.08,4.63.28,10.09,1.31,13.52,4.77,14.26,14.84.34,4.62.19,9.27.2,13.91.05,68.04.19,136.07.05,204.11-.03,12.99.58,25.73,5.07,38.05.5,1.38.33,3.01.57,5.69Z"/>
      <path class="cls-2" d="M333.87,291.09c17.88-5.47,33.63-4.3,49.04.86,21.65,7.25,33.58,24.03,34.35,48.06.81,25.22,1.09,50.46,1.71,75.69.14,5.65.46,11.33,1.23,16.92.78,5.68,2.64,11.03,8.57,14.75,3.78-.97,8.02-2.06,12.68-3.26,1.4,6.66-1.85,10.79-4.8,14.84-3.75,5.15-8.95,8.53-14.99,10.39-13.59,4.2-27.3,4.51-41.16,1.18-9.72-2.33-18.24-6.84-26.03-12.99-5.64-4.45-8.7-9.95-8.48-17.26.3-10.3.48-20.6.59-30.9.06-5.63.67-11.48-4.81-16.25-7.93-.02-12.7,4.58-14.94,12.15-4.63,15.64-2.23,30.55,5.27,44.77,1.65,3.13,3.81,5.99,6.28,9.83-2.83,2.42-5.09,5.37-8.08,6.74-18.36,8.43-37,8.43-55.27-.04-13.11-6.09-20.44-16.86-22.03-31.34-.22-2.04-.35-4.11-.4-6.16-.43-19.68,5.74-38.13,34.51-43.57,7.05-1.34,14.27-1.86,21.41-2.72,8.17-.98,16.46-1.38,24.5-3.01,10.04-2.04,12.54-5.56,13.2-15.82.3-4.63.4-9.26.71-13.89,1.34-20.35.33-40.22-13.06-58.98Z"/>
      <path class="cls-2" d="M463.74,414.32c2.94,2.27,5.27,3.41,6.65,5.26,3.69,4.94,6.95,10.2,10.42,15.3,9.7,14.26,22.84,23.43,39.79,27.12,9.9,2.16,19.44.85,28.89-2.21,1.45-.47,2.91-1.12,4.18-1.95,16.08-10.53,18.38-23.35.66-34.63-4.28-2.72-9.27-4.5-14.13-6.11-10.25-3.4-20.65-6.35-30.96-9.59-9.37-2.94-18.37-6.69-26.4-12.5-14.33-10.36-21.77-24.34-22.13-42.03-.79-38.67,25.51-65.75,64.31-65.38,11.78.11,23.54,2.22,35.3,3.54,7.16.8,14.33,1.62,21.43,2.83,6.91,1.17,9.11,3.45,9.55,10.01.69,10.15,1.01,20.33-.25,29.56-4.34,2.37-6.23.55-7.94-1.39-4.75-5.42-9.32-11-14.12-16.38-6.94-7.79-14.83-14.41-24.94-17.6-15.36-4.85-30.74-2.48-41.06,9.45-1.66,1.93-3.21,4.06-4.31,6.34-2.42,5.02-1.58,10.65,2.93,13.93,4.51,3.28,9.57,6.09,14.79,8.03,10.12,3.77,20.6,6.53,30.76,10.19,9.18,3.31,18.41,6.7,27.12,11.04,19.27,9.6,29.29,25.4,28.93,47.13-.13,7.68-.47,15.52-2.09,22.98-5.44,25.04-24.34,41.09-50.14,42.45-10.24.54-20.57-.32-30.84-.92-11.81-.7-23.59-1.82-35.38-2.75-1.03-.08-2.06-.07-3.09-.13-19.26-1.13-20.44-2.34-20.67-21.99-.09-7.21-.13-14.42.17-21.62.1-2.29,1.39-4.53,2.53-8Z"/>
      <g>
        <path class="cls-2" d="M228.59,48.27c-8.3,6.67-15.35,11.82-21.83,17.61-54.21,48.39-108.3,96.9-162.46,145.33-4.6,4.11-9.24,8.29-14.34,11.72-7.41,4.98-12.7,4.22-19.53-1.76-.39-.34-.75-.7-1.13-1.06-12.31-11.68-12.51-19.36.05-30.93,16.3-15,32.97-29.61,49.5-44.37C108.05,100.88,157.24,56.94,206.46,13.02c3.46-3.08,6.93-6.19,10.65-8.93,7.55-5.56,15.32-5.35,22.9,0,2.94,2.07,5.68,4.44,8.37,6.84,65.3,58.4,130.6,116.8,195.84,175.26,3.43,3.07,6.77,6.39,9.49,10.08,4.08,5.53,3.96,11.62.13,17.3-1.99,2.95-4.35,5.8-7.04,8.11-6.13,5.28-12.86,5.8-19.93,1.26-4.3-2.76-8.13-6.31-11.96-9.73-55.36-49.42-110.65-98.9-166.04-148.29-6.11-5.45-12.66-10.41-20.29-16.65Z"/>
        <path class="cls-2" d="M60.46,30.49c9.01-2.53,16.68.55,24.27,3.79,6.24,2.66,9.35,7.77,10.28,14.29,1.3,9.16-.65,18.04-7.09,24.32-13.56,13.24-27.86,25.74-42.26,38.08-5.02,4.3-10.03,1.92-11.41-4.42-.22-1-.41-2.03-.41-3.04-.08-18.98-.52-37.97-.04-56.94.29-11.37,4.74-15.15,16.34-16.03,3.57-.27,7.18-.04,10.32-.04Z"/>
      </g>
      <path class="cls-2" d="M312.66,290.58c6.87,15.03,12.41,29.25,11.87,45.19-.65,19.27-10.91,29.31-30.27,28.82-4.56-.12-9.24-.87-13.61-2.18-10.41-3.11-16.06-10.59-17.78-21.17-3.99-24.66,11.66-46.59,36.32-50.58,3.98-.64,8.14-.09,13.46-.09Z"/>
      <path class="cls-2" d="M1206.12,466.98c-19.62-.24-32.67-13.75-32.41-33.55.26-19.48,13.81-32.29,33.83-31.97,19.57.31,33.43,14.37,32.75,33.26-.69,19.17-14.81,32.51-34.17,32.27Z"/>
      <g>
        <path class="cls-3" d="M1751.16,309.36c7.83,6.32,10.87,13.95,10.64,23.39-.23,9.26.49,18.53.5,27.79.02,24.71.1,49.42-.29,74.12-.15,9.19-1.56,18.35-2.54,29.07,13.26.99,26.04.63,38.78.48,12.71-.14,25.53,1.07,38.29-.94,0-4.16.31-7.25-.05-10.26-3.56-29.77-2.62-59.65-1.78-89.48.34-12.28,2.45-24.54,4.09-36.76.47-3.49,1.88-6.93,3.29-10.2,2.18-5.05,6.07-8.67,11.65-8.89,5.91-.23,9.58,3.94,11.24,9.02,1.89,5.79,3.69,11.92,3.84,17.94.98,39.6,3.17,79.24-1.88,118.77-.43,3.33-2.18,6.96.71,10.06,16.38,1.77,67.07,1.48,79.04-.54-.41-2.44-.53-4.98-1.27-7.31-3.81-11.93-4.4-24.21-4.68-36.61-.62-27.28-1.35-54.56-2.43-81.83-.28-7.13-1.35-14.38-3.17-21.28-2.88-10.93-9.81-19.08-19.81-24.53-26.68-14.53-59.17-7.19-77.07,17.36-1.96,2.69-4.17,5.19-6.59,8.17-3.74-4.99-6.7-9.19-9.9-13.18-7.71-9.6-17.66-15.99-29.74-18.02-18.49-3.11-35.9-.33-51.06,11.76-2.66,2.12-5.55,3.94-8.13,5.75-1.52-1.3-2.58-1.81-3.03-2.65-4.78-8.86-12.5-11.06-21.99-10.86-15.95.33-31.91-.15-47.87-.04-2.87.02-5.72,1.23-9.65,2.13,5.88,16.11,5.09,32.16,5.3,48.08.29,22.65.25,45.31-.01,67.96-.18,15.95-.41,31.94-4.9,47.49-.69,2.38-.54,4.99-.77,7.45,13.53,2.64,68.83,2.42,80.53-.38-.84-8.02-2.01-16.12-2.48-24.26-1.69-28.81-1.85-57.63.1-86.44.38-5.62,1.78-11.16,2.45-16.77,1.48-12.39,7.73-20.96,20.7-25.55Z"/>
        <path class="cls-1" d="M1529.74,469.43c10.61-.62,18.34-.77,26-1.58,37.4-3.97,60.59-25.89,67.67-63.1,4.51-23.74,2.1-47.2-2.46-70.49-3.15-16.04-12.66-28.3-27.29-35.5-38.37-18.89-76.99-20.44-115.55-.11-11.72,6.18-20.79,14.93-27.35,26.43-19.21,33.68-17.81,67.78-2.06,102.1,10.76,23.45,29.5,36.44,54.71,40.12,9.63,1.4,19.44,1.61,26.34,2.14Z"/>
        <path class="cls-3" d="M1415.33,425.71c-4.94,6.28-7.92,10.41-11.26,14.24-10.63,12.2-24.06,17.14-40.09,14.9-14.16-1.98-23.53-9.67-27.58-23.48-.86-2.94-1.38-6.03-1.7-9.08-3.2-30.82-3.06-61.66-.09-92.49,1.12-11.61,6.46-21.66,13.2-30.86,5.22-7.13,13.16-8.1,20.45-3.28,8.01,5.29,10.09,13.32,5.26,21.3-2.12,3.51-5.05,6.54-7.06,10.1-6.42,11.35-4.79,24.53,4.03,32.61,15.17,13.89,47.09,12.62,54.27-15.48,6-23.47-4.17-43.66-26.95-51.96-34.24-12.48-67.74-10.22-100.04,6.77-16.19,8.51-27.52,21.65-33.49,38.84-11,31.69-8.32,63,5.53,93.1,8.43,18.33,23.4,29.7,43.45,33.73,22.49,4.52,44.98,4.28,67.46-.2,8.27-1.65,15.6-5.17,21.96-10.67,8.03-6.94,11.42-13.95,12.66-28.1Z"/>
        <path class="cls-2" d="M1751.16,309.36c-12.97,4.59-19.22,13.16-20.7,25.55-.67,5.61-2.07,11.15-2.45,16.77-1.95,28.8-1.78,57.63-.1,86.44.48,8.14,1.64,16.24,2.48,24.26-11.7,2.8-67,3.02-80.53.38.23-2.46.09-5.08.77-7.45,4.49-15.55,4.72-31.54,4.9-47.49.26-22.65.31-45.31.01-67.96-.21-15.91.58-31.96-5.3-48.08,3.93-.9,6.78-2.11,9.65-2.13,15.96-.11,31.92.37,47.87.04,9.49-.2,17.21,2,21.99,10.86.45.84,1.51,1.35,3.03,2.65,2.58-1.82,5.48-3.63,8.13-5.75,15.15-12.08,32.57-14.86,51.06-11.76,12.08,2.03,22.03,8.43,29.74,18.02,3.21,3.99,6.17,8.19,9.9,13.18,2.42-2.99,4.63-5.49,6.59-8.17,17.9-24.55,50.39-31.88,77.07-17.36,10,5.44,16.92,13.59,19.81,24.53,1.82,6.9,2.89,14.14,3.17,21.28,1.08,27.27,1.81,54.55,2.43,81.83.28,12.39.87,24.68,4.68,36.61.75,2.34.86,4.87,1.27,7.31-11.98,2.02-62.66,2.31-79.04.54-2.88-3.1-1.13-6.73-.71-10.06,5.05-39.52,2.86-79.16,1.88-118.77-.15-6.02-1.95-12.14-3.84-17.94-1.66-5.09-5.33-9.26-11.24-9.02-5.58.22-9.48,3.84-11.65,8.89-1.41,3.28-2.82,6.71-3.29,10.2-1.64,12.22-3.75,24.47-4.09,36.76-.84,29.83-1.78,59.71,1.78,89.48.36,3.01.05,6.11.05,10.26-12.76,2.01-25.57.79-38.29.94-12.73.15-25.51.51-38.78-.48.98-10.72,2.39-19.88,2.54-29.07.4-24.7.32-49.41.29-74.12,0-9.27-.72-18.54-.5-27.79.23-9.43-2.81-17.06-10.64-23.39Z"/>
        <path class="cls-2" d="M1529.74,469.43c-6.9-.53-16.7-.74-26.34-2.14-25.21-3.67-43.94-16.66-54.71-40.12-15.75-34.32-17.16-68.42,2.06-102.1,6.56-11.49,15.63-20.25,27.35-26.43,38.56-20.32,77.18-18.78,115.55.11,14.62,7.2,24.14,19.47,27.29,35.5,4.57,23.29,6.98,46.75,2.46,70.49-7.08,37.21-30.27,59.12-67.67,63.1-7.66.81-15.39.96-26,1.58ZM1551.99,378.07h-.43c0-19.05-.03-38.11.02-57.16.02-6.26-.61-12.38-3.56-18-3.13-5.95-8.06-9.11-14.92-9.25-8.98-.18-15.36,4.26-17.7,14-1.8,7.47-2.67,15.23-3.21,22.91-1.55,22.08-2.49,44.22-1.42,66.33.7,14.37,2.53,28.69,4.12,43.01.9,8.07,4.51,14.67,11.93,18.78,2.9,1.61,5.84,2.31,8.75.52,9.52-5.86,17.06-12.59,16.59-25.52-.67-18.52-.17-37.07-.17-55.62Z"/>
        <path class="cls-2" d="M1415.33,425.71c-1.23,14.14-4.63,21.16-12.66,28.1-6.35,5.49-13.69,9.02-21.96,10.67-22.48,4.48-44.97,4.71-67.46.2-20.05-4.03-35.01-15.4-43.45-33.73-13.85-30.11-16.53-61.41-5.53-93.1,5.97-17.2,17.31-30.33,33.49-38.84,32.3-16.99,65.8-19.24,100.04-6.77,22.78,8.3,32.96,28.48,26.95,51.96-7.19,28.1-39.11,29.37-54.27,15.48-8.82-8.08-10.45-21.26-4.03-32.61,2.01-3.56,4.94-6.59,7.06-10.1,4.83-7.98,2.75-16.01-5.26-21.3-7.29-4.82-15.23-3.85-20.45,3.28-6.74,9.21-12.08,19.25-13.2,30.86-2.97,30.82-3.11,61.66.09,92.49.32,3.06.84,6.14,1.7,9.08,4.05,13.8,13.42,21.5,27.58,23.48,16.04,2.24,29.46-2.7,40.09-14.9,3.33-3.83,6.32-7.96,11.26-14.24Z"/>
        <path class="cls-1" d="M1551.99,378.07c0,18.54-.5,37.1.17,55.62.47,12.93-7.07,19.66-16.59,25.52-2.91,1.79-5.86,1.08-8.75-.52-7.42-4.11-11.03-10.71-11.93-18.78-1.59-14.31-3.42-28.64-4.12-43.01-1.08-22.11-.13-44.25,1.42-66.33.54-7.68,1.41-15.44,3.21-22.91,2.34-9.74,8.72-14.17,17.7-14,6.86.13,11.79,3.3,14.92,9.25,2.95,5.61,3.57,11.74,3.56,18-.05,19.05-.02,38.11-.02,57.16h.43Z"/>
      </g>
    </g>
  </g>
</svg>